<svg xmlns="http://www.w3.org/2000/svg" width="118" height="38" fill="none"><path stroke="#000" stroke-width="2" d="M1 1h116v36H1z"/><path fill="#000" d="M0 0h2v31H0zM32.75 24.75V12.5h3.5V23h7v1.75h-10.5Zm17.5-10.5V12.5h3.5v1.75h-3.5Zm-3.5 10.5V23h3.5v-5.25H48.5V16h5.25v7h3.5v1.75h-10.5Zm12.25 0V12.5h3.5v7H66v-1.75h1.75V16h3.5v1.75H69.5v1.75h-1.75v1.75h1.75V23h1.75v1.75h-3.5V23H66v-1.75h-3.5v3.5H59Zm15.75 0V23H73v-5.25h1.75V16h8.75v1.75h1.75v3.5H76.5V23h7v1.75h-8.75Zm1.75-5.25h5.25v-1.75H76.5v1.75Z"/></svg>