<svg xmlns="http://www.w3.org/2000/svg" width="343" height="23" fill="none"><path fill="#000" d="M3.375 20.125V17.25H.5v-2.875h5.75v2.875h8.625V11.5H6.25V8.625h8.625v-5.75H6.25V5.75H.5V2.875h2.875V0H17.75v2.875h2.875v5.75H17.75V11.5h2.875v5.75H17.75v2.875H3.375Zm20.125 0V5.75h2.875V2.875h2.875V0h8.625v2.875h2.875V5.75h2.875v14.375h-5.75v-5.75H29.25v5.75H23.5Zm5.75-8.625h8.625V5.75H35V2.875h-2.875V5.75H29.25v5.75Zm25.875-5.75H58v2.875h2.875V11.5h2.875v5.75h2.875v2.875h-5.75V17.25H58V11.5h-5.75v8.625H46.5V0h5.75v8.625h2.875V5.75ZM66.625 0v2.875H63.75V5.75H58V2.875h2.875V0h5.75ZM69.5 20.125V0h17.25v2.875h2.875V11.5H86.75v2.875h-11.5v5.75H69.5Zm5.75-8.625h8.625V2.875H75.25V11.5Zm17.25 8.625V0h5.75v5.75H104v14.375H92.5Zm14.375 0V0h5.75v20.125h-5.75ZM98.25 17.25h2.875V8.625H98.25v8.625Zm17.25 2.875V0h17.25v2.875h2.875v5.75h-2.875V11.5h2.875v5.75h-2.875v2.875H115.5Zm5.75-11.5h8.625v-5.75h-8.625v5.75Zm0 8.625h8.625V11.5h-8.625v5.75Zm17.25 2.875V5.75h2.875V2.875h2.875V0h8.625v2.875h2.875V5.75h2.875v14.375h-5.75v-5.75h-8.625v5.75h-5.75Zm5.75-8.625h8.625V5.75H150V2.875h-2.875V5.75h-2.875v5.75Zm17.25 8.625V0h2.875v8.625h2.875v-5.75h2.875V0h8.625v2.875h2.875V17.25h-2.875v2.875h-8.625V17.25h-2.875V11.5h-2.875v8.625H161.5ZM173 17.25h2.875V2.875H173V17.25ZM201.75 23v-2.875H184.5V0h5.75v17.25h2.875V0H196v17.25h2.875V0h5.75v17.25h2.875V23h-5.75Zm5.75-2.875V0h5.75v11.5h2.875V8.625H219V5.75h2.875V0h5.75v20.125h-5.75V11.5H219v2.875h-2.875v2.875h-2.875v2.875h-5.75Zm25.875-17.25V0h14.375v2.875h-14.375Zm-2.875 17.25V5.75h5.75v8.625h2.875V11.5H242V8.625h2.875V5.75h5.75v14.375h-5.75v-5.75H242v2.875h-2.875v2.875H230.5Zm54.625 0V2.875h-5.75V0h17.25v2.875h-5.75v17.25h-5.75Zm14.375 0V0h20.125v2.875H305.25v5.75h11.5V11.5h-11.5v5.75h14.375v2.875H299.5Zm25.875 0V0h17.25v5.75h-2.875V2.875h-8.625v17.25h-5.75Z"/></svg>